<svg xmlns="http://www.w3.org/2000/svg" height="1024" preserveAspectRatio="none" style="display: block;" version="1.1" viewBox="0 0 2048 2048" width="1024">
<path d="M 0 0 L 2048 0 L 2048 2048 L 0 2048 L 0 0 z" fill="rgb(2,3,242)" transform="translate(0,0)"></path>
<path d="M 988.495 736.488 C 1028.28 736.202 1068.06 736.269 1107.84 736.688 C 1132.46 736.73 1173.37 735.025 1195.88 740.398 C 1220.82 746.097 1243.67 758.617 1261.9 776.559 C 1291.33 805.587 1306.34 840.259 1306.63 881.483 L 1306.79 1074.62 L 1306.79 1137.78 C 1306.77 1159.45 1307.7 1181.38 1302.53 1202.43 C 1290.97 1249.48 1255.44 1288.45 1209.59 1304.17 C 1183.3 1313.18 1157.96 1311.47 1130.74 1311.47 L 1061.5 1311.66 L 942.982 1311.6 C 915.108 1311.53 874.535 1313.33 848.104 1307.31 C 827.99 1302.72 800.555 1286.79 785.981 1271.85 C 752.146 1237.18 741.378 1204.81 741.357 1157.57 C 741.331 1101.57 741.469 1045.97 741.358 990.239 L 741.3 918.832 C 741.376 863.583 740.865 822.09 783.442 778.906 C 824.893 736.864 860.871 736.723 916.125 736.754 L 988.495 736.488 z" fill="rgb(255,255,255)" transform="translate(0,0)"></path>
<path d="M 1017.68 784.315 C 1019.44 784.108 1021.21 783.987 1022.99 783.952 C 1041.86 783.715 1057.69 791.44 1071.22 804.445 C 1094.95 827.261 1089.5 863.168 1089.3 894.585 L 1089.18 958.59 C 1109.06 959.108 1129.99 958.275 1149.96 958.539 C 1180.09 958.939 1207.12 954.515 1230.68 977.353 C 1244.18 990.672 1251.84 1008.8 1251.99 1027.76 C 1252.23 1045.93 1245 1063.39 1232.01 1076.09 C 1224.1 1084.03 1214.26 1089.78 1203.46 1092.76 C 1185.61 1097.69 1113.72 1095.71 1090.94 1095.63 L 1091.05 1166.53 C 1091.07 1179.45 1091.85 1200.29 1089.36 1212.13 C 1087.35 1221.76 1083.22 1230.82 1077.26 1238.65 C 1065.32 1254.27 1049.22 1261.89 1030.11 1264.45 C 1028.22 1264.53 1026.33 1264.58 1024.44 1264.58 C 1005.39 1264.58 988.942 1258.53 975.307 1245.06 C 952.115 1222.14 955.803 1189.55 955.864 1159.64 L 956.038 1095.54 C 935.124 1095.8 861.535 1097.46 845.726 1093.63 C 835.599 1091.18 826.206 1086.33 818.337 1079.5 C 790.052 1055.09 786.965 1010.77 811.834 982.672 C 834.906 956.608 863.729 960.085 895.325 959.922 C 915.622 959.818 936.332 960.305 956.644 959.297 C 956.917 933.535 956.978 907.772 956.826 882.01 C 956.803 869.69 956.039 847.161 958.145 836.212 C 959.975 827.056 963.791 818.412 969.324 810.89 C 981.276 794.597 998.284 787.353 1017.68 784.315 z" fill="rgb(2,3,242)" transform="translate(0,0)"></path>
<path d="M 942.802 856.939 C 943.929 856.849 946.381 856.631 946.413 857.316 C 947.207 874.556 946.745 933.16 946.633 946.878 C 921.665 947.142 895.011 946.436 870.242 947.454 C 869.934 947.485 867.285 947.798 867.5 946.758 C 875.553 907.804 904.913 870.716 942.802 856.939 z" fill="rgb(2,3,242)" transform="translate(0,0)"></path>
<path d="M 1101.09 853.573 L 1102.75 854.237 C 1106.46 855.677 1109.57 857.12 1113 859.111 C 1147.75 879.268 1169.1 904.376 1178.42 943.786 L 1179.22 946.763 C 1153.37 947.081 1126.79 946.995 1100.9 946.889 L 1101.09 853.573 z" fill="rgb(2,3,242)" transform="translate(0,0)"></path>
<metadata><recraft-signature>{"signed_by": "recraft", "signature_b64": "E+BtdvqvTVymuat7wLSXBAZo1WoF79r+9nSFtw85zLW0+UXQrPwvVkwk4ikahaP2xwetM6RVxqPk/XaAttKGDw==", "signing_algo": "Ed25519", "generation_timestamp": 1783729839, "identifier": "311ba5be-c861-4590-a678-a5b1705ad5ef"}</recraft-signature></metadata></svg>